<?xml version="1.0" encoding="UTF-8"?><svg id="a" xmlns="http://www.w3.org/2000/svg" viewBox="0 0 57.7 60.5"><defs><style>.b{fill:#641cf1;}</style></defs><path class="b" d="M38.46,45.5c-1.01,0-2.02-.44-2.71-1.28L4.25,5.72c-1.22-1.5-1-3.7,.49-4.93,1.5-1.22,3.7-1,4.93,.49l31.5,38.5c1.22,1.5,1,3.7-.49,4.93-.65,.53-1.44,.79-2.21,.79Z"/><path class="b" d="M54.2,36.8c-1.89,0-3.44-1.5-3.5-3.4l-.74-25.3c-.06-1.93,1.46-3.54,3.4-3.6,1.98-.04,3.54,1.46,3.6,3.4l.74,25.3c.06,1.93-1.46,3.54-3.4,3.6-.04,0-.07,0-.1,0Z"/><path class="b" d="M28.46,60.5c-.41,0-.83-.07-1.24-.23L2.26,50.84c-1.81-.68-2.72-2.7-2.04-4.51,.68-1.81,2.7-2.72,4.51-2.04l24.96,9.43c1.81,.68,2.72,2.7,2.04,4.51-.53,1.4-1.86,2.26-3.28,2.26Z"/></svg>