<svg width="413" height="58" viewBox="0 0 413 58" fill="none" xmlns="http://www.w3.org/2000/svg">
<path d="M189.027 58H6.86581C3.08083 58 0 54.9144 0 51.1371V6.8527C0 3.074 3.08083 0 6.86581 0H189.027C192.81 0 196 3.074 196 6.8527V51.1371C196 54.9144 192.81 58 189.027 58Z" fill="#A6A6A6"/>
<path d="M194.595 51.1386C194.595 54.2068 192.106 56.6921 189.028 56.6921H6.86581C3.78933 56.6921 1.29215 54.2068 1.29215 51.1386V6.85125C1.29215 3.7845 3.78933 1.2905 6.86581 1.2905H189.027C192.106 1.2905 194.593 3.7845 194.593 6.85125L194.595 51.1386Z" fill="black"/>
<path d="M43.7414 28.6868C43.6993 24.0135 47.5728 21.7399 47.75 21.634C45.5562 18.4397 42.156 18.0032 40.9611 17.9684C38.1053 17.6683 35.3352 19.6751 33.8804 19.6751C32.3966 19.6751 30.1564 17.9974 27.742 18.0467C24.635 18.0946 21.7284 19.8911 20.1343 22.6809C16.8444 28.3693 19.298 36.7285 22.45 41.3265C24.0267 43.5783 25.8691 46.0926 28.2806 46.0041C30.6399 45.907 31.5212 44.5019 34.3682 44.5019C37.1892 44.5019 38.0167 46.0042 40.4762 45.9476C43.0082 45.907 44.6023 43.6856 46.1239 41.4135C47.946 38.8325 48.6777 36.2906 48.7067 36.1601C48.6472 36.1398 43.7893 34.2882 43.7414 28.6868Z" fill="white"/>
<path d="M39.0955 14.9437C40.3644 13.3588 41.2326 11.2027 40.9916 9.01465C39.155 9.09585 36.8582 10.2834 35.5355 11.8335C34.3653 13.1994 33.32 15.4382 33.59 17.5436C35.6531 17.6973 37.7714 16.5039 39.0955 14.9437Z" fill="white"/>
<path d="M77.8846 45.6808H74.5874L72.7813 40.0127H66.5035L64.7831 45.6808H61.573L67.7928 26.3842H71.6344L77.8846 45.6808ZM72.2369 37.6348L70.6036 32.596C70.4308 32.0813 70.107 30.869 69.6294 28.9608H69.5713C69.3811 29.7815 69.0748 30.9938 68.6537 32.596L67.0494 37.6348H72.2369Z" fill="white"/>
<path d="M93.8796 38.5526C93.8796 40.919 93.2394 42.7895 91.9588 44.1627C90.8119 45.385 89.3876 45.9955 87.6875 45.9955C85.8524 45.9955 84.5341 45.3371 83.7312 44.0205H83.6731V51.3503H80.5778V36.3471C80.5778 34.8594 80.5386 33.3326 80.4631 31.7666H83.1853L83.3581 33.9721H83.4162C84.4484 32.3104 86.015 31.481 88.1172 31.481C89.7607 31.481 91.1327 32.1291 92.2303 33.4268C93.3308 34.726 93.8796 36.4342 93.8796 38.5526ZM90.7262 38.6657C90.7262 37.3114 90.4213 36.1949 89.8087 35.3162C89.1394 34.3998 88.2407 33.9416 87.114 33.9416C86.3503 33.9416 85.6564 34.1968 85.0364 34.7C84.415 35.2075 84.0085 35.8701 83.8183 36.6908C83.7225 37.0736 83.6746 37.3868 83.6746 37.6333V39.9533C83.6746 40.9654 83.9853 41.8195 84.6067 42.5169C85.2281 43.2144 86.0353 43.5624 87.0284 43.5624C88.1942 43.5624 89.1016 43.1129 89.7506 42.2168C90.401 41.3192 90.7262 40.136 90.7262 38.6657Z" fill="white"/>
<path d="M109.904 38.5526C109.904 40.919 109.263 42.7895 107.981 44.1627C106.836 45.385 105.412 45.9955 103.712 45.9955C101.876 45.9955 100.558 45.3371 99.7567 44.0205H99.6987V51.3503H96.6033V36.3471C96.6033 34.8594 96.5641 33.3326 96.4886 31.7666H99.2108L99.3836 33.9721H99.4417C100.472 32.3104 102.039 31.481 104.143 31.481C105.785 31.481 107.157 32.1291 108.257 33.4268C109.353 34.726 109.904 36.4342 109.904 38.5526ZM106.75 38.6657C106.75 37.3114 106.444 36.1949 105.831 35.3162C105.162 34.3998 104.266 33.9416 103.138 33.9416C102.373 33.9416 101.68 34.1968 101.059 34.7C100.438 35.2075 100.033 35.8701 99.8424 36.6908C99.748 37.0736 99.6987 37.3868 99.6987 37.6333V39.9533C99.6987 40.9654 100.009 41.8195 100.628 42.5169C101.249 43.2129 102.056 43.5624 103.052 43.5624C104.218 43.5624 105.126 43.1129 105.775 42.2168C106.425 41.3192 106.75 40.136 106.75 38.6657Z" fill="white"/>
<path d="M127.82 40.2694C127.82 41.9108 127.249 43.2462 126.104 44.2772C124.845 45.4038 123.092 45.9665 120.841 45.9665C118.761 45.9665 117.095 45.5663 115.833 44.7644L116.55 42.1878C117.909 43.0085 119.4 43.4202 121.025 43.4202C122.191 43.4202 123.098 43.1564 123.75 42.6315C124.399 42.1066 124.723 41.4019 124.723 40.5232C124.723 39.7402 124.456 39.0804 123.92 38.5454C123.387 38.0103 122.497 37.513 121.254 37.0533C117.871 35.7933 116.182 33.9474 116.182 31.5201C116.182 29.9338 116.774 28.6331 117.96 27.621C119.142 26.6075 120.719 26.1014 122.69 26.1014C124.448 26.1014 125.909 26.4074 127.075 27.0179L126.301 29.538C125.212 28.9464 123.981 28.6506 122.603 28.6506C121.514 28.6506 120.663 28.9188 120.054 29.4524C119.538 29.9295 119.28 30.5109 119.28 31.1997C119.28 31.9624 119.575 32.5931 120.167 33.089C120.682 33.5472 121.619 34.0431 122.978 34.5782C124.64 35.2466 125.861 36.0282 126.646 36.9243C127.429 37.8175 127.82 38.9354 127.82 40.2694Z" fill="white"/>
<path d="M138.054 34.0866H134.642V40.8422C134.642 42.5604 135.243 43.4188 136.448 43.4188C137.001 43.4188 137.46 43.3709 137.823 43.2752L137.909 45.6228C137.299 45.8505 136.496 45.965 135.501 45.965C134.279 45.965 133.324 45.5924 132.634 44.8485C131.947 44.1032 131.602 42.8533 131.602 41.0974V34.0837H129.569V31.7637H131.602V29.2161L134.642 28.2997V31.7637H138.054V34.0866Z" fill="white"/>
<path d="M153.448 38.6092C153.448 40.7479 152.835 42.5039 151.613 43.877C150.331 45.2908 148.629 45.9955 146.508 45.9955C144.464 45.9955 142.836 45.3183 141.622 43.964C140.409 42.6097 139.802 40.9001 139.802 38.8397C139.802 36.6835 140.426 34.9175 141.679 33.5443C142.929 32.1697 144.616 31.4824 146.737 31.4824C148.781 31.4824 150.426 32.1596 151.668 33.5153C152.855 34.8305 153.448 36.5284 153.448 38.6092ZM150.236 38.7092C150.236 37.426 149.962 36.3254 149.406 35.4076C148.757 34.2969 147.829 33.743 146.627 33.743C145.383 33.743 144.437 34.2983 143.789 35.4076C143.232 36.3269 142.958 37.4448 142.958 38.7672C142.958 40.0505 143.232 41.151 143.789 42.0674C144.458 43.1781 145.393 43.732 146.599 43.732C147.781 43.732 148.709 43.1665 149.378 42.0384C149.949 41.1032 150.236 39.991 150.236 38.7092Z" fill="white"/>
<path d="M163.509 34.4854C163.203 34.4288 162.876 34.3998 162.533 34.3998C161.444 34.3998 160.602 34.8102 160.01 35.6323C159.495 36.3573 159.236 37.2737 159.236 38.3801V45.6808H156.142L156.171 36.1485C156.171 34.5448 156.132 33.0847 156.055 31.7681H158.751L158.865 34.4303H158.95C159.277 33.5153 159.792 32.7787 160.498 32.2263C161.187 31.7289 161.932 31.481 162.735 31.481C163.021 31.481 163.28 31.5013 163.509 31.5375V34.4854Z" fill="white"/>
<path d="M177.352 38.0654C177.352 38.6193 177.316 39.0862 177.239 39.4676H167.953C167.989 40.8422 168.438 41.8934 169.3 42.6184C170.083 43.2666 171.095 43.5914 172.338 43.5914C173.713 43.5914 174.967 43.3724 176.095 42.9331L176.58 45.0791C175.262 45.6533 173.705 45.9389 171.909 45.9389C169.749 45.9389 168.053 45.3038 166.819 44.035C165.588 42.7663 164.971 41.0626 164.971 38.9253C164.971 36.8271 165.545 35.0799 166.693 33.6864C167.895 32.1987 169.52 31.4549 171.564 31.4549C173.572 31.4549 175.092 32.1987 176.124 33.6864C176.942 34.8682 177.352 36.3298 177.352 38.0654ZM174.401 37.2635C174.421 36.3471 174.219 35.5555 173.8 34.887C173.264 34.0272 172.441 33.5979 171.333 33.5979C170.321 33.5979 169.498 34.017 168.869 34.858C168.354 35.5265 168.048 36.3283 167.953 37.2621L174.401 37.2635Z" fill="white"/>
<path d="M71.2133 14.5131C71.2133 16.2197 70.7008 17.5044 69.6773 18.3672C68.7292 19.1632 67.3819 19.562 65.6368 19.562C64.7715 19.562 64.031 19.5243 63.4111 19.4489V10.1239C64.2198 9.9934 65.0909 9.9267 66.0317 9.9267C67.694 9.9267 68.947 10.2878 69.792 11.0099C70.7386 11.8262 71.2133 12.9935 71.2133 14.5131ZM69.609 14.5551C69.609 13.4488 69.3158 12.6005 68.7292 12.0089C68.1427 11.4187 67.2861 11.123 66.158 11.123C65.6789 11.123 65.2709 11.1548 64.9326 11.2215V18.3106C65.1199 18.3396 65.4625 18.3526 65.9605 18.3526C67.1249 18.3526 68.0236 18.0293 68.6566 17.3826C69.2896 16.7359 69.609 15.7934 69.609 14.5551Z" fill="white"/>
<path d="M79.7197 16.0037C79.7197 17.0549 79.4192 17.9162 78.8181 18.5919C78.188 19.2864 77.3532 19.633 76.3108 19.633C75.3061 19.633 74.5061 19.301 73.9094 18.634C73.3142 17.9684 73.0165 17.1289 73.0165 16.1168C73.0165 15.0583 73.3229 14.1897 73.9385 13.5155C74.554 12.8412 75.3816 12.5034 76.424 12.5034C77.4287 12.5034 78.2359 12.8354 78.8472 13.5009C79.4279 14.1476 79.7197 14.9829 79.7197 16.0037ZM78.1416 16.0529C78.1416 15.4222 78.0051 14.8813 77.7336 14.4304C77.4142 13.8852 76.9598 13.6126 76.3689 13.6126C75.7576 13.6126 75.293 13.8852 74.9736 14.4304C74.7007 14.8813 74.5657 15.4309 74.5657 16.0805C74.5657 16.7113 74.7021 17.2521 74.9736 17.7031C75.3032 18.2483 75.762 18.5209 76.3543 18.5209C76.9351 18.5209 77.391 18.2439 77.7191 17.6886C78.0007 17.2289 78.1416 16.6837 78.1416 16.0529Z" fill="white"/>
<path d="M91.1255 12.6426L88.984 19.4778H87.5902L86.7031 16.5097C86.4781 15.7688 86.2952 15.0322 86.1529 14.3014H86.1253C85.9932 15.0525 85.8103 15.7876 85.5751 16.5097L84.6328 19.4778H83.2231L81.2093 12.6426H82.773L83.5468 15.892C83.7341 16.6605 83.888 17.3927 84.0114 18.0858H84.039C84.1522 17.5145 84.3395 16.7867 84.6038 15.9065L85.5751 12.644H86.8149L87.7456 15.8369C87.9706 16.6156 88.1535 17.3652 88.2944 18.0873H88.3365C88.4396 17.3841 88.5949 16.6344 88.8011 15.8369L89.6315 12.644H91.1255V12.6426Z" fill="white"/>
<path d="M99.0134 19.4778H97.4919V15.5628C97.4919 14.3564 97.0331 13.7533 96.1126 13.7533C95.6611 13.7533 95.2967 13.9186 95.0135 14.2506C94.7333 14.5827 94.591 14.9742 94.591 15.4222V19.4764H93.0695V14.5957C93.0695 13.9954 93.0506 13.3444 93.0143 12.6397H94.3515L94.4226 13.7083H94.4647C94.6419 13.3763 94.9061 13.1022 95.2531 12.8833C95.6654 12.6281 96.1271 12.499 96.6324 12.499C97.2712 12.499 97.8025 12.7049 98.225 13.1182C98.7506 13.6242 99.0134 14.3797 99.0134 15.3831V19.4778Z" fill="white"/>
<path d="M103.209 19.4778H101.689V9.5062H103.209V19.4778Z" fill="white"/>
<path d="M112.167 16.0037C112.167 17.0549 111.867 17.9162 111.266 18.5919C110.635 19.2864 109.799 19.633 108.758 19.633C107.752 19.633 106.952 19.301 106.357 18.634C105.762 17.9684 105.464 17.1289 105.464 16.1168C105.464 15.0583 105.77 14.1897 106.386 13.5155C107.001 12.8412 107.829 12.5034 108.87 12.5034C109.876 12.5034 110.682 12.8354 111.295 13.5009C111.875 14.1476 112.167 14.9829 112.167 16.0037ZM110.588 16.0529C110.588 15.4222 110.451 14.8813 110.18 14.4304C109.862 13.8852 109.406 13.6126 108.816 13.6126C108.204 13.6126 107.739 13.8852 107.421 14.4304C107.148 14.8813 107.013 15.4309 107.013 16.0805C107.013 16.7113 107.15 17.2521 107.421 17.7031C107.751 18.2483 108.209 18.5209 108.802 18.5209C109.383 18.5209 109.837 18.2439 110.165 17.6886C110.448 17.2289 110.588 16.6837 110.588 16.0529Z" fill="white"/>
<path d="M119.531 19.4778H118.165L118.052 18.6905H118.009C117.542 19.3184 116.876 19.633 116.01 19.633C115.364 19.633 114.841 19.4257 114.448 19.0139C114.091 18.6398 113.912 18.1743 113.912 17.6219C113.912 16.7867 114.261 16.1501 114.962 15.7093C115.662 15.2685 116.646 15.0525 117.914 15.0626V14.935C117.914 14.0346 117.44 13.5851 116.492 13.5851C115.817 13.5851 115.222 13.7547 114.708 14.0911L114.399 13.0935C115.035 12.7006 115.82 12.5034 116.746 12.5034C118.535 12.5034 119.432 13.4459 119.432 15.3309V17.8481C119.432 18.531 119.466 19.0747 119.531 19.4778ZM117.951 17.1289V16.0747C116.273 16.0457 115.434 16.5054 115.434 17.4522C115.434 17.8089 115.53 18.0757 115.726 18.254C115.922 18.4324 116.171 18.5209 116.469 18.5209C116.803 18.5209 117.115 18.415 117.4 18.2048C117.686 17.9931 117.861 17.7248 117.927 17.3957C117.943 17.3217 117.951 17.2318 117.951 17.1289Z" fill="white"/>
<path d="M128.177 19.4778H126.827L126.755 18.3802H126.713C126.282 19.2154 125.547 19.633 124.515 19.633C123.691 19.633 123.004 19.3097 122.459 18.663C121.915 18.0163 121.643 17.1767 121.643 16.1458C121.643 15.0394 121.938 14.1433 122.53 13.4589C123.104 12.8209 123.807 12.5019 124.643 12.5019C125.562 12.5019 126.205 12.8108 126.571 13.4299H126.6V9.5062H128.123V17.6364C128.123 18.3019 128.14 18.9152 128.177 19.4778ZM126.6 16.5952V15.4556C126.6 15.2584 126.586 15.0989 126.558 14.9771C126.472 14.6117 126.288 14.3043 126.008 14.0563C125.725 13.8084 125.383 13.6837 124.99 13.6837C124.422 13.6837 123.978 13.9084 123.651 14.3594C123.328 14.8103 123.163 15.386 123.163 16.0892C123.163 16.7649 123.319 17.313 123.631 17.735C123.961 18.1845 124.405 18.4092 124.961 18.4092C125.46 18.4092 125.86 18.2221 126.163 17.8466C126.456 17.5 126.6 17.0824 126.6 16.5952Z" fill="white"/>
<path d="M141.19 16.0037C141.19 17.0549 140.889 17.9162 140.288 18.5919C139.658 19.2864 138.825 19.633 137.781 19.633C136.778 19.633 135.978 19.301 135.379 18.634C134.784 17.9684 134.486 17.1289 134.486 16.1168C134.486 15.0583 134.793 14.1897 135.408 13.5155C136.024 12.8412 136.852 12.5034 137.895 12.5034C138.899 12.5034 139.707 12.8354 140.317 13.5009C140.898 14.1476 141.19 14.9829 141.19 16.0037ZM139.613 16.0529C139.613 15.4222 139.476 14.8813 139.205 14.4304C138.884 13.8852 138.431 13.6126 137.839 13.6126C137.229 13.6126 136.764 13.8852 136.444 14.4304C136.171 14.8813 136.036 15.4309 136.036 16.0805C136.036 16.7113 136.172 17.2521 136.444 17.7031C136.773 18.2483 137.232 18.5209 137.824 18.5209C138.405 18.5209 138.862 18.2439 139.19 17.6886C139.471 17.2289 139.613 16.6837 139.613 16.0529Z" fill="white"/>
<path d="M149.371 19.4778H147.851V15.5628C147.851 14.3564 147.392 13.7533 146.47 13.7533C146.019 13.7533 145.654 13.9186 145.372 14.2506C145.091 14.5827 144.95 14.9742 144.95 15.4222V19.4764H143.427V14.5957C143.427 13.9954 143.41 13.3444 143.373 12.6397H144.709L144.78 13.7083H144.822C145.001 13.3763 145.265 13.1022 145.611 12.8833C146.024 12.6281 146.485 12.499 146.991 12.499C147.629 12.499 148.16 12.7049 148.583 13.1182C149.11 13.6242 149.371 14.3797 149.371 15.3831V19.4778Z" fill="white"/>
<path d="M159.611 13.7808H157.935V17.1013C157.935 17.9452 158.233 18.3672 158.822 18.3672C159.095 18.3672 159.322 18.344 159.5 18.2961L159.54 19.4489C159.239 19.562 158.844 19.6185 158.358 19.6185C157.757 19.6185 157.289 19.4358 156.951 19.0704C156.611 18.705 156.443 18.0902 156.443 17.2274V13.7808H155.443V12.6426H156.443V11.3898L157.934 10.9403V12.6411H159.609L159.611 13.7808Z" fill="white"/>
<path d="M167.666 19.4778H166.143V15.5919C166.143 14.3666 165.684 13.7533 164.765 13.7533C164.059 13.7533 163.577 14.1085 163.313 14.819C163.268 14.9684 163.242 15.1511 163.242 15.3657V19.4764H161.722V9.5062H163.242V13.6257H163.271C163.75 12.876 164.437 12.5019 165.327 12.5019C165.957 12.5019 166.478 12.7078 166.892 13.121C167.407 13.6358 167.666 14.4014 167.666 15.4135V19.4778Z" fill="white"/>
<path d="M175.975 15.7368C175.975 16.0094 175.954 16.2386 175.918 16.4256H171.355C171.375 17.1013 171.593 17.6161 172.015 17.9728C172.402 18.2918 172.9 18.4513 173.509 18.4513C174.184 18.4513 174.8 18.344 175.355 18.1279L175.593 19.1835C174.944 19.4648 174.18 19.6054 173.296 19.6054C172.236 19.6054 171.401 19.2937 170.797 18.6702C170.19 18.0467 169.89 17.2101 169.89 16.1603C169.89 15.1293 170.17 14.2709 170.735 13.5865C171.324 12.8557 172.121 12.4903 173.128 12.4903C174.112 12.4903 174.86 12.8557 175.365 13.5865C175.773 14.1665 175.975 14.8842 175.975 15.7368ZM174.523 15.3439C174.534 14.8929 174.434 14.5044 174.228 14.1767C173.964 13.7547 173.562 13.543 173.017 13.543C172.521 13.543 172.116 13.7489 171.806 14.1622C171.554 14.4913 171.404 14.8842 171.355 15.3439H174.523Z" fill="white"/>
<path fill-rule="evenodd" clip-rule="evenodd" d="M405.738 58H224.262C220.26 58 217 54.7312 217 50.75V7.25C217 3.25436 220.26 0 224.262 0H405.738C409.737 0 413 3.25436 413 7.25V50.75C413 54.7312 409.737 58 405.738 58Z" fill="black"/>
<path fill-rule="evenodd" clip-rule="evenodd" d="M405.738 1.16072C409.095 1.16072 411.843 3.89801 411.843 7.25V50.75C411.843 54.102 409.113 56.8393 405.738 56.8393H224.262C220.905 56.8393 218.157 54.102 218.157 50.75V7.25C218.157 3.89801 220.887 1.16072 224.262 1.16072H405.738ZM405.738 0H224.262C220.26 0 217 3.26883 217 7.25V50.75C217 54.7456 220.26 58 224.262 58H405.738C409.737 58 413 54.7456 413 50.75V7.25C413 3.26883 409.737 0 405.738 0Z" fill="#A6A6A6"/>
<path d="M320.254 19.1863C318.945 19.1863 317.841 18.7271 316.969 17.8231C316.103 16.9444 315.62 15.733 315.642 14.4964C315.642 13.1766 316.089 12.0592 316.969 11.1733C317.838 10.2693 318.941 9.8101 320.25 9.8101C321.544 9.8101 322.648 10.2693 323.535 11.1733C324.415 12.0882 324.862 13.2055 324.862 14.4964C324.847 15.8198 324.4 16.9372 323.535 17.8195C322.666 18.7307 321.562 19.1863 320.254 19.1863ZM281.308 19.1863C280.028 19.1863 278.918 18.7343 278.009 17.8411C277.107 16.9516 276.65 15.8271 276.65 14.5C276.65 13.1729 277.107 12.0484 278.009 11.1589C278.899 10.2657 280.01 9.81372 281.308 9.81372C281.943 9.81372 282.559 9.94027 283.151 10.197C283.731 10.4465 284.203 10.7864 284.553 11.2022L284.64 11.3071L283.663 12.269L283.562 12.1496C283.01 11.4915 282.271 11.1697 281.294 11.1697C280.421 11.1697 279.66 11.4807 279.033 12.0954C278.402 12.7137 278.081 13.5237 278.081 14.5036C278.081 15.4835 278.402 16.2935 279.033 16.9118C279.66 17.5266 280.421 17.8375 281.294 17.8375C282.224 17.8375 283.006 17.5266 283.616 16.9118C283.976 16.5503 284.2 16.044 284.279 15.404H281.146V14.0516H285.624L285.642 14.1746C285.675 14.4024 285.707 14.6374 285.707 14.8544C285.707 16.1019 285.332 17.1107 284.589 17.8556C283.746 18.7379 282.642 19.1863 281.308 19.1863ZM333.09 18.9946H331.709L327.479 12.2075L327.515 13.4297V18.991H326.134V10.0054H327.71L327.753 10.0741L331.731 16.4671L331.695 15.2485V10.0054H333.09V18.9946ZM309.876 18.9946H308.477V11.3577H306.051V10.0054H312.299V11.3577H309.873V18.9946H309.876ZM304.911 18.9946H303.516V10.0054H304.911V18.9946ZM297.069 18.9946H295.673V11.3577H293.247V10.0054H299.495V11.3577H297.069V18.9946ZM292.363 18.9802H287.012V10.0054H292.363V11.3577H288.411V13.8238H291.977V15.1617H288.411V17.6278H292.363V18.9802ZM317.993 16.8938C318.617 17.5193 319.374 17.8339 320.254 17.8339C321.159 17.8339 321.898 17.5266 322.514 16.8938C323.127 16.2791 323.437 15.4727 323.437 14.5C323.437 13.5273 323.127 12.7173 322.518 12.1062C321.894 11.4807 321.133 11.1661 320.257 11.1661C319.352 11.1661 318.613 11.4734 318 12.1062C317.387 12.7209 317.077 13.5273 317.077 14.5C317.077 15.4727 317.383 16.2827 317.993 16.8938Z" fill="white"/>
<path fill-rule="evenodd" clip-rule="evenodd" d="M315.512 31.5456C312.105 31.5456 309.343 34.1383 309.343 37.7145C309.343 41.2581 312.123 43.8833 315.512 43.8833C318.919 43.8833 321.681 41.2726 321.681 37.7145C321.681 34.1383 318.919 31.5456 315.512 31.5456ZM315.512 41.4389C313.648 41.4389 312.043 39.8913 312.043 37.7C312.043 35.4762 313.651 33.9611 315.512 33.9611C317.376 33.9611 318.981 35.4762 318.981 37.7C318.984 39.9057 317.376 41.4389 315.512 41.4389ZM302.052 31.5456C298.644 31.5456 295.882 34.1383 295.882 37.7145C295.882 41.2581 298.662 43.8833 302.052 43.8833C305.459 43.8833 308.221 41.2726 308.221 37.7145C308.221 34.1383 305.456 31.5456 302.052 31.5456ZM302.052 41.4389C300.188 41.4389 298.583 39.8913 298.583 37.7C298.583 35.4762 300.191 33.9611 302.052 33.9611C303.916 33.9611 305.521 35.4762 305.521 37.7C305.521 39.9057 303.916 41.4389 302.052 41.4389ZM286.035 33.4296V36.0403H292.284C292.093 37.5047 291.61 38.5859 290.87 39.3272C289.955 40.2456 288.541 41.2436 286.05 41.2436C282.21 41.2436 279.206 38.1339 279.206 34.2829C279.206 30.4319 282.21 27.3222 286.05 27.3222C288.123 27.3222 289.634 28.143 290.755 29.1916L292.601 27.3403C291.044 25.8433 288.97 24.697 286.064 24.697C280.796 24.697 276.375 29 276.375 34.2685C276.375 39.5514 280.792 43.8399 286.064 43.8399C288.909 43.8399 291.044 42.907 292.731 41.1496C294.451 39.4248 294.995 36.9913 294.995 35.0278C294.995 34.4167 294.949 33.8671 294.851 33.4006H286.032C286.035 33.397 286.035 33.4296 286.035 33.4296ZM351.548 35.4617C351.032 34.0768 349.474 31.5312 346.28 31.5312C343.114 31.5312 340.482 34.0298 340.482 37.7C340.482 41.1641 343.085 43.8688 346.586 43.8688C349.399 43.8688 351.036 42.144 351.71 41.1315L349.622 39.7286C348.93 40.7591 347.967 41.4353 346.601 41.4353C345.22 41.4353 344.253 40.8061 343.611 39.5658L351.836 36.1488C351.836 36.1524 351.548 35.4617 351.548 35.4617ZM343.161 37.5228C343.096 35.1399 345.007 33.9286 346.373 33.9286C347.452 33.9286 348.349 34.4601 348.656 35.2339L343.161 37.5228ZM336.479 43.5H339.18V25.3768H336.479V43.5ZM332.044 32.9161H331.947C331.338 32.1893 330.18 31.5312 328.702 31.5312C325.633 31.5312 322.806 34.2395 322.806 37.7181C322.806 41.1822 325.619 43.858 328.702 43.858C330.162 43.858 331.338 43.1963 331.947 42.455H332.044V43.3409C332.044 45.6949 330.789 46.9641 328.767 46.9641C327.112 46.9641 326.084 45.7708 325.666 44.7728L323.318 45.7564C323.993 47.3835 325.792 49.3976 328.763 49.3976C331.929 49.3976 334.612 47.5282 334.612 42.9685V31.9H332.059V32.9161C332.062 32.9161 332.044 32.9161 332.044 32.9161ZM328.943 41.4389C327.079 41.4389 325.522 39.8768 325.522 37.7181C325.522 35.5413 327.079 33.9647 328.943 33.9647C330.789 33.9647 332.221 35.5594 332.221 37.7181C332.239 39.8768 330.793 41.4389 328.943 41.4389ZM364.193 25.3768H357.735V43.5H360.436V36.6369H364.197C367.186 36.6369 370.124 34.4637 370.124 31.0141C370.124 27.5645 367.196 25.3768 364.193 25.3768ZM364.272 34.1057H360.432V27.8863H364.272C366.295 27.8863 367.438 29.5605 367.438 30.996C367.438 32.4171 366.281 34.1057 364.272 34.1057ZM380.949 31.5131C378.987 31.5131 376.964 32.3845 376.128 34.2829L378.522 35.2809C379.038 34.2829 379.982 33.943 380.981 33.943C382.38 33.943 383.794 34.7819 383.826 36.2789V36.4706C383.343 36.1958 382.283 35.7763 381.014 35.7763C378.428 35.7763 375.807 37.1938 375.807 39.8515C375.807 42.285 377.927 43.8471 380.289 43.8471C382.103 43.8471 383.101 43.0263 383.725 42.0753H383.822V43.4783H386.426V36.5357C386.426 33.303 384.032 31.5131 380.949 31.5131ZM380.61 41.4389C379.726 41.4389 378.49 41.005 378.49 39.8913C378.49 38.4883 380.033 37.9567 381.349 37.9567C382.539 37.9567 383.101 38.2135 383.808 38.5678C383.613 40.195 382.243 41.4244 380.61 41.4389ZM395.923 31.9L392.822 39.7611H392.725L389.512 31.9H386.606L391.427 42.8889L388.679 48.9963H391.492L398.909 31.9H395.923ZM371.613 43.5H374.314V25.3768H371.613V43.5Z" fill="white"/>
<path fill-rule="evenodd" clip-rule="evenodd" d="M232.086 10.9238C231.668 11.3758 231.427 12.0665 231.427 12.9704V45.0332C231.427 45.9372 231.668 46.6278 232.101 47.0617L232.213 47.1594L250.126 29.1953V28.7939L232.198 10.8262L232.086 10.9238Z" fill="url(#paint0_linear_159_239)"/>
<path fill-rule="evenodd" clip-rule="evenodd" d="M256.086 35.2014L250.111 29.2097V28.7903L256.086 22.7986L256.216 22.8782L263.283 26.9064C265.306 28.049 265.306 29.9365 263.283 31.0936L256.216 35.1218L256.086 35.2014Z" fill="url(#paint1_linear_159_239)"/>
<path fill-rule="evenodd" clip-rule="evenodd" d="M256.216 35.1218L250.111 29L232.086 47.0762C232.746 47.7849 233.853 47.8645 235.09 47.1738L256.216 35.1218Z" fill="url(#paint2_linear_159_239)"/>
<path fill-rule="evenodd" clip-rule="evenodd" d="M256.216 22.8782L235.09 10.8443C233.853 10.1355 232.743 10.2332 232.086 10.9419L250.111 29L256.216 22.8782Z" fill="url(#paint3_linear_159_239)"/>
<path fill-rule="evenodd" clip-rule="evenodd" d="M256.086 34.9916L235.104 46.946C233.932 47.6222 232.887 47.5752 232.213 46.9605L232.101 47.0726L232.213 47.1702C232.887 47.7813 233.932 47.8319 235.104 47.1557L256.23 35.1218L256.086 34.9916Z" fill="black"/>
<path fill-rule="evenodd" clip-rule="evenodd" d="M263.283 30.8839L256.068 34.9916L256.198 35.1218L263.265 31.0936C264.278 30.5151 264.776 29.7557 264.776 29C264.715 29.6943 264.199 30.3524 263.283 30.8839Z" fill="black"/>
<path fill-rule="evenodd" clip-rule="evenodd" d="M235.09 11.054L263.283 27.1161C264.199 27.6332 264.715 28.3094 264.794 29C264.794 28.2443 264.296 27.4849 263.283 26.9064L235.09 10.8443C233.067 9.68354 231.427 10.6526 231.427 12.9704V13.1802C231.427 10.8587 233.067 9.90773 235.09 11.054Z" fill="white"/>
<defs>
<linearGradient id="paint0_linear_159_239" x1="377.512" y1="2.87076" x2="330.746" y2="174.785" gradientUnits="userSpaceOnUse">
<stop stop-color="#00A0FF"/>
<stop offset="0.00657" stop-color="#00A1FF"/>
<stop offset="0.2601" stop-color="#00BEFF"/>
<stop offset="0.5122" stop-color="#00D2FF"/>
<stop offset="0.7604" stop-color="#00DFFF"/>
<stop offset="1" stop-color="#00E3FF"/>
</linearGradient>
<linearGradient id="paint1_linear_159_239" x1="444.514" y1="29.0002" x2="-539.179" y2="29.0002" gradientUnits="userSpaceOnUse">
<stop stop-color="#FFE000"/>
<stop offset="0.4087" stop-color="#FFBD00"/>
<stop offset="0.7754" stop-color="#FFA500"/>
<stop offset="1" stop-color="#FF9C00"/>
</linearGradient>
<linearGradient id="paint2_linear_159_239" x1="356.186" y1="10.3586" x2="338.683" y2="172.047" gradientUnits="userSpaceOnUse">
<stop stop-color="#FF3A44"/>
<stop offset="1" stop-color="#C31162"/>
</linearGradient>
<linearGradient id="paint3_linear_159_239" x1="-77.6876" y1="-31.4247" x2="-69.874" y2="40.7907" gradientUnits="userSpaceOnUse">
<stop stop-color="#32A071"/>
<stop offset="0.0685" stop-color="#2DA771"/>
<stop offset="0.4762" stop-color="#15CF74"/>
<stop offset="0.8009" stop-color="#06E775"/>
<stop offset="1" stop-color="#00F076"/>
</linearGradient>
</defs>
</svg>
