<?xml version="1.0" encoding="UTF-8"?><svg xmlns="http://www.w3.org/2000/svg" viewBox="0 0 1112 1112"><defs><style>.d{fill:#fff;}.e{fill:#7740ff;}</style></defs><g id="a"/><g id="b"/><g id="c"><g><polygon class="e" points="980.75 224.39 862.59 88.92 804.35 189.8 980.75 224.39"/><g><polygon class="e" points="498.64 346.51 810.58 346.51 659.1 427.87 498.64 346.51"/><polygon class="d" points="654.58 493.52 372.6 346.51 372.6 769.49 464.42 769.49 464.42 509.79 650.74 598.03 851.8 509.79 853.06 769.49 936.56 769.49 936.56 346.51 654.58 493.52"/></g><path class="d" d="M592.25,1095c-72.47,0-142.8-14.21-209.04-42.22-63.95-27.05-121.38-65.76-170.67-115.06-49.3-49.3-88.01-106.72-115.06-170.67-28.02-66.24-42.22-136.57-42.22-209.04s14.21-142.8,42.22-209.04c27.05-63.95,65.76-121.38,115.06-170.67,49.3-49.3,106.72-88.01,170.67-115.06,66.24-28.02,136.57-42.22,209.04-42.22,79.32,0,155.72,16.91,227.08,50.25l-48.99,104.85c-55.91-26.12-115.83-39.37-178.09-39.37-232.29,0-421.27,188.98-421.27,421.27s188.98,421.27,421.27,421.27c58.15,0,114.43-11.61,167.29-34.51l46,106.2c-67.46,29.23-139.23,44.04-213.29,44.04Z"/><path class="e" d="M848.48,1026.89l-59.54-99.24c25.6-15.36,49.65-33.52,71.5-53.97l79.1,84.48c-27.81,26.04-58.45,49.16-91.06,68.73Z"/></g></g></svg>