<svg width="258" height="66" viewBox="0 0 258 66" fill="none" xmlns="http://www.w3.org/2000/svg">
<path d="M258 33.0002C258 48.4642 245.463 61.0002 229.999 61.0002C214.536 61.0002 201.999 48.4642 201.999 33.0002C201.999 17.5362 214.536 5.00018 229.999 5.00018C245.463 5.00018 258 17.5362 258 33.0002Z" fill="#6C63FF"/>
<path d="M55.7995 20.8002H60.7995V45.3002H53.9995V33.7002L49.9995 39.4002H45.5995L41.5995 33.7002V45.2002H34.7995V20.8002H39.7995L47.6995 32.7002" fill="#6C63FF"/>
<path d="M33.3995 56.5002C20.3995 56.5002 9.8995 46.0002 9.8995 33.0002C9.8995 20.0002 20.3995 9.50018 33.3995 9.50018C39.4995 9.50018 45.3995 11.9002 49.7995 16.2002H61.1995C60.5995 15.3002 59.9995 14.4002 59.3995 13.5002L58.7995 12.8002C47.5995 -1.19982 27.0995 -3.49982 13.0995 7.70018C-0.900502 18.9002 -3.2005 39.3002 7.9995 53.3002C19.1995 67.3002 39.6995 69.6002 53.6995 58.4002C55.2995 57.1002 56.7995 55.6002 58.1995 54.0002C58.3995 53.7002 58.6995 53.4002 58.8995 53.1002C59.0995 52.8002 59.2995 52.5002 59.5995 52.2002C60.1995 51.4002 60.7995 50.5002 61.2995 49.6002H49.9995C45.5995 54.0002 39.5995 56.5002 33.3995 56.5002Z" fill="white"/>
<path d="M93.1421 26.0139C92.185 26.0139 91.3283 26.187 90.5718 26.5334C89.8244 26.8797 89.1909 27.381 88.6714 28.0373C88.1518 28.6844 87.7554 29.4728 87.4819 30.4025C87.2085 31.3231 87.0718 32.3622 87.0718 33.5197C87.0718 35.0692 87.2905 36.4045 87.728 37.5256C88.1655 38.6376 88.8309 39.4943 89.7241 40.0959C90.6173 40.6883 91.7475 40.9846 93.1147 40.9846C93.9624 40.9846 94.7873 40.9025 95.5893 40.7385C96.3914 40.5744 97.2209 40.3511 98.0776 40.0685V42.8576C97.2664 43.1766 96.4461 43.409 95.6167 43.5549C94.7873 43.7007 93.8302 43.7736 92.7456 43.7736C90.7039 43.7736 89.0086 43.3498 87.6597 42.5021C86.3198 41.6545 85.3172 40.4605 84.6518 38.9201C83.9956 37.3797 83.6675 35.5751 83.6675 33.506C83.6675 31.993 83.8771 30.6076 84.2964 29.3498C84.7156 28.092 85.3263 27.0073 86.1284 26.0959C86.9305 25.1753 87.9194 24.4689 89.0952 23.9767C90.2801 23.4754 91.6336 23.2248 93.1557 23.2248C94.1584 23.2248 95.1427 23.3387 96.1089 23.5666C97.0841 23.7853 97.9865 24.0998 98.8159 24.5099L97.6675 27.217C96.9748 26.8889 96.2501 26.6063 95.4936 26.3693C94.7371 26.1323 93.9533 26.0139 93.1421 26.0139Z" fill="white"/>
<path d="M121.041 35.8986C121.041 37.1564 120.877 38.273 120.549 39.2482C120.221 40.2235 119.742 41.0484 119.113 41.7228C118.484 42.3882 117.728 42.8986 116.844 43.2541C115.96 43.6004 114.961 43.7736 113.85 43.7736C112.81 43.7736 111.858 43.6004 110.992 43.2541C110.126 42.8986 109.374 42.3882 108.736 41.7228C108.107 41.0484 107.62 40.2235 107.273 39.2482C106.927 38.273 106.754 37.1564 106.754 35.8986C106.754 34.2307 107.041 32.8179 107.615 31.6603C108.198 30.4937 109.028 29.605 110.103 28.9943C111.179 28.3836 112.46 28.0783 113.945 28.0783C115.34 28.0783 116.57 28.3836 117.637 28.9943C118.703 29.605 119.537 30.4937 120.139 31.6603C120.74 32.827 121.041 34.2398 121.041 35.8986ZM110.062 35.8986C110.062 37.0015 110.195 37.9448 110.459 38.7287C110.732 39.5126 111.152 40.1141 111.717 40.5334C112.282 40.9435 113.011 41.1486 113.904 41.1486C114.797 41.1486 115.527 40.9435 116.092 40.5334C116.657 40.1141 117.072 39.5126 117.336 38.7287C117.6 37.9448 117.732 37.0015 117.732 35.8986C117.732 34.7958 117.6 33.8615 117.336 33.0959C117.072 32.3211 116.657 31.7333 116.092 31.3322C115.527 30.9221 114.793 30.717 113.891 30.717C112.56 30.717 111.589 31.1636 110.978 32.0568C110.368 32.9501 110.062 34.2307 110.062 35.8986Z" fill="white"/>
<path d="M147.436 28.0783C149.131 28.0783 150.407 28.5158 151.264 29.3908C152.13 30.2658 152.563 31.6695 152.563 33.6017V43.5002H149.35V34.176C149.35 33.0275 149.127 32.1616 148.68 31.5783C148.233 30.995 147.554 30.7033 146.643 30.7033C145.367 30.7033 144.446 31.1135 143.881 31.9338C143.325 32.745 143.047 33.9253 143.047 35.4748V43.5002H139.834V34.176C139.834 33.4103 139.734 32.7723 139.533 32.2619C139.342 31.7424 139.046 31.355 138.645 31.0998C138.244 30.8355 137.738 30.7033 137.127 30.7033C136.243 30.7033 135.537 30.9038 135.008 31.3049C134.489 31.7059 134.115 32.2984 133.887 33.0822C133.659 33.857 133.545 34.8094 133.545 35.9396V43.5002H130.332V28.3654H132.834L133.285 30.4025H133.463C133.773 29.8739 134.156 29.4409 134.612 29.1037C135.076 28.7573 135.591 28.5021 136.157 28.3381C136.722 28.1649 137.31 28.0783 137.92 28.0783C139.05 28.0783 140.003 28.2788 140.778 28.6799C141.552 29.0718 142.131 29.6734 142.514 30.4846H142.76C143.234 29.6642 143.895 29.0581 144.742 28.6662C145.59 28.2743 146.488 28.0783 147.436 28.0783Z" fill="white"/>
<path d="M179.751 28.0783C181.446 28.0783 182.722 28.5158 183.579 29.3908C184.445 30.2658 184.878 31.6695 184.878 33.6017V43.5002H181.665V34.176C181.665 33.0275 181.441 32.1616 180.995 31.5783C180.548 30.995 179.869 30.7033 178.958 30.7033C177.682 30.7033 176.761 31.1135 176.196 31.9338C175.64 32.745 175.362 33.9253 175.362 35.4748V43.5002H172.149V34.176C172.149 33.4103 172.049 32.7723 171.848 32.2619C171.657 31.7424 171.361 31.355 170.96 31.0998C170.559 30.8355 170.053 30.7033 169.442 30.7033C168.558 30.7033 167.852 30.9038 167.323 31.3049C166.803 31.7059 166.43 32.2984 166.202 33.0822C165.974 33.857 165.86 34.8094 165.86 35.9396V43.5002H162.647V28.3654H165.149L165.6 30.4025H165.778C166.088 29.8739 166.471 29.4409 166.926 29.1037C167.391 28.7573 167.906 28.5021 168.471 28.3381C169.036 28.1649 169.624 28.0783 170.235 28.0783C171.365 28.0783 172.318 28.2788 173.092 28.6799C173.867 29.0718 174.446 29.6734 174.829 30.4846H175.075C175.549 29.6642 176.21 29.0581 177.057 28.6662C177.905 28.2743 178.803 28.0783 179.751 28.0783Z" fill="white"/>
<path d="M198.175 28.3654V43.5002H194.962V28.3654H198.175ZM196.589 22.5685C197.081 22.5685 197.505 22.7007 197.86 22.965C198.225 23.2293 198.407 23.6851 198.407 24.3322C198.407 24.9702 198.225 25.426 197.86 25.6994C197.505 25.9637 197.081 26.0959 196.589 26.0959C196.079 26.0959 195.646 25.9637 195.29 25.6994C194.944 25.426 194.771 24.9702 194.771 24.3322C194.771 23.6851 194.944 23.2293 195.29 22.965C195.646 22.7007 196.079 22.5685 196.589 22.5685Z" fill="white"/>
<path d="M217.337 43.5002L211.582 26.8068H211.458C211.486 27.1805 211.518 27.6909 211.554 28.3381C211.591 28.9852 211.623 29.6779 211.65 30.4162C211.677 31.1545 211.691 31.8609 211.691 32.5353V43.5002H208.71V23.5119H213.318L218.855 39.467H218.937L224.666 23.5119H229.259V43.5002H226.128V32.3713C226.128 31.7606 226.138 31.0998 226.156 30.3889C226.183 29.6779 226.21 29.0034 226.238 28.3654C226.274 27.7274 226.302 27.217 226.32 26.8342H226.21L220.236 43.5002H217.337Z" fill="white"/>
<path d="M245.824 28.0783C247.173 28.0783 248.331 28.3563 249.297 28.9123C250.263 29.4683 251.006 30.2567 251.525 31.2775C252.045 32.2984 252.305 33.5197 252.305 34.9416V36.6642H242.201C242.238 38.1317 242.629 39.2619 243.377 40.0549C244.133 40.8478 245.191 41.2443 246.549 41.2443C247.515 41.2443 248.381 41.1532 249.146 40.9709C249.921 40.7795 250.719 40.5015 251.539 40.1369V42.7482C250.782 43.1037 250.012 43.3635 249.228 43.5275C248.445 43.6916 247.506 43.7736 246.412 43.7736C244.926 43.7736 243.618 43.4865 242.488 42.9123C241.367 42.329 240.488 41.4631 239.85 40.3146C239.221 39.1662 238.906 37.7398 238.906 36.0353C238.906 34.34 239.193 32.8999 239.767 31.715C240.342 30.5301 241.148 29.6278 242.187 29.008C243.226 28.3882 244.439 28.0783 245.824 28.0783ZM245.824 30.4982C244.812 30.4982 243.992 30.8264 243.363 31.4826C242.743 32.1389 242.379 33.1004 242.269 34.3674H249.16C249.151 33.6109 249.023 32.9409 248.777 32.3576C248.54 31.7743 248.176 31.3185 247.683 30.9904C247.2 30.6623 246.581 30.4982 245.824 30.4982Z" fill="white"/>
</svg>
