<?xml version="1.0" encoding="UTF-8"?><svg xmlns="http://www.w3.org/2000/svg" viewBox="0 0 2922 916"><defs><style>.d{fill:#fff;}.e{fill:#7740ff;}</style></defs><g id="a"><circle class="e" cx="2611.33" cy="459.77" r="283.34"/><g><path class="d" d="M922.23,371.4c10.68-19.34,25.57-34.41,44.67-45.21,19.1-10.79,40.76-16.2,64.96-16.2,29.66,0,55.05,7.83,76.18,23.49,21.12,15.66,35.24,37.02,42.36,64.07h-66.92c-4.98-10.44-12.05-18.39-21.18-23.85-9.14-5.46-19.52-8.19-31.15-8.19-18.75,0-33.94,6.53-45.56,19.58-11.63,13.05-17.44,30.5-17.44,52.33s5.81,39.28,17.44,52.33c11.62,13.05,26.81,19.58,45.56,19.58,11.62,0,22.01-2.72,31.15-8.19,9.13-5.46,16.2-13.4,21.18-23.85h66.92c-7.12,27.05-21.24,48.36-42.36,63.9-21.12,15.54-46.51,23.32-76.18,23.32-24.21,0-45.86-5.4-64.96-16.2-19.1-10.8-33.99-25.81-44.67-45.03s-16.02-41.17-16.02-65.85,5.34-46.69,16.02-66.03Z"/><path class="d" d="M1243.48,553.12c-15.55-8.3-27.76-20.17-36.66-35.6-8.9-15.42-13.35-33.46-13.35-54.11s4.5-38.38,13.53-53.93c9.02-15.54,21.36-27.46,37.02-35.77,15.66-8.3,33.22-12.46,52.68-12.46s37.02,4.15,52.68,12.46c15.66,8.31,28,20.23,37.02,35.77,9.02,15.55,13.53,33.52,13.53,53.93s-4.57,38.39-13.7,53.93c-9.14,15.54-21.6,27.47-37.38,35.77-15.79,8.31-33.4,12.46-52.86,12.46s-36.96-4.15-52.5-12.46Zm82.23-53.04c8.19-8.54,12.28-20.76,12.28-36.66s-3.98-28.12-11.92-36.66c-7.95-8.54-17.74-12.82-29.37-12.82s-21.71,4.22-29.54,12.64c-7.83,8.43-11.75,20.71-11.75,36.84s3.85,28.12,11.57,36.66c7.71,8.54,17.38,12.81,29.01,12.81s21.54-4.27,29.72-12.81Z"/><path class="d" d="M1762.47,384.4c14.59,14.95,21.89,35.72,21.89,62.29v116.04h-60.51v-107.86c0-12.81-3.38-22.72-10.15-29.72-6.76-7-16.08-10.5-27.94-10.5s-21.18,3.5-27.94,10.5c-6.76,7-10.14,16.91-10.14,29.72v107.86h-60.51v-107.86c0-12.81-3.38-22.72-10.14-29.72-6.76-7-16.08-10.5-27.94-10.5s-21.18,3.5-27.94,10.5c-6.76,7-10.15,16.91-10.15,29.72v107.86h-60.87v-198.63h60.87v24.92c6.17-8.3,14.24-14.89,24.21-19.76,9.97-4.86,21.24-7.3,33.82-7.3,14.95,0,28.3,3.2,40.05,9.61,11.75,6.41,20.94,15.54,27.59,27.41,6.88-10.91,16.25-19.81,28.12-26.7,11.86-6.88,24.79-10.32,38.8-10.32,24.68,0,44.32,7.48,58.91,22.43Z"/><path class="d" d="M2157.22,384.4c14.59,14.95,21.89,35.72,21.89,62.29v116.04h-60.51v-107.86c0-12.81-3.38-22.72-10.15-29.72-6.76-7-16.08-10.5-27.94-10.5s-21.18,3.5-27.94,10.5c-6.76,7-10.14,16.91-10.14,29.72v107.86h-60.51v-107.86c0-12.81-3.38-22.72-10.14-29.72-6.76-7-16.08-10.5-27.94-10.5s-21.18,3.5-27.94,10.5c-6.76,7-10.15,16.91-10.15,29.72v107.86h-60.87v-198.63h60.87v24.92c6.17-8.3,14.24-14.89,24.21-19.76,9.97-4.86,21.24-7.3,33.82-7.3,14.95,0,28.3,3.2,40.05,9.61,11.75,6.41,20.94,15.54,27.59,27.41,6.88-10.91,16.25-19.81,28.12-26.7,11.86-6.88,24.79-10.32,38.8-10.32,24.68,0,44.32,7.48,58.91,22.43Z"/><path class="d" d="M2244.07,334.03c-6.76-6.28-10.15-14.06-10.15-23.32s3.38-17.38,10.15-23.67c6.76-6.29,15.48-9.43,26.16-9.43s19.04,3.15,25.81,9.43c6.76,6.29,10.14,14.18,10.14,23.67s-3.38,17.03-10.14,23.32c-6.76,6.29-15.37,9.43-25.81,9.43s-19.4-3.14-26.16-9.43Zm56.42,30.08v198.63h-60.87v-198.63h60.87Z"/><path class="d" d="M2645.42,312.85v249.88h-60.87v-149.86l-55.89,149.86h-49.12l-56.24-150.22v150.22h-60.87v-249.88h71.9l70.12,173,69.41-173h71.55Z"/><path class="d" d="M2893.17,478.01h-137.76c.95,12.34,4.92,21.78,11.92,28.3,7,6.53,15.6,9.79,25.81,9.79,15.18,0,25.75-6.41,31.68-19.22h64.79c-3.33,13.05-9.32,24.8-17.98,35.24-8.67,10.45-19.52,18.63-32.57,24.56-13.05,5.93-27.65,8.9-43.78,8.9-19.46,0-36.79-4.15-51.97-12.46-15.19-8.3-27.05-20.17-35.6-35.6-8.54-15.42-12.81-33.46-12.81-54.11s4.21-38.68,12.64-54.11c8.42-15.42,20.23-27.29,35.42-35.6,15.18-8.3,32.63-12.46,52.33-12.46s36.31,4.04,51.26,12.1c14.95,8.07,26.64,19.58,35.06,34.53,8.42,14.95,12.64,32.39,12.64,52.33,0,5.7-.36,11.63-1.07,17.8Zm-61.23-33.82c0-10.44-3.56-18.74-10.68-24.92-7.12-6.17-16.02-9.25-26.7-9.25s-18.81,2.97-25.81,8.9c-7,5.93-11.34,14.36-12.99,25.27h76.18Z"/></g></g><g id="b"/><g id="c"><g><polygon class="e" points="785.96 176.47 685.62 61.42 636.15 147.09 785.96 176.47"/><g><polygon class="e" points="376.54 280.17 641.45 280.17 512.8 349.26 376.54 280.17"/><polygon class="d" points="508.97 405.02 269.5 280.17 269.5 639.37 347.48 639.37 347.48 418.83 505.71 493.77 676.45 418.83 677.53 639.37 748.43 639.37 748.43 280.17 508.97 405.02"/></g><path class="d" d="M456.03,915.81c-61.54,0-121.27-12.06-177.52-35.86-54.31-22.97-103.08-55.85-144.94-97.71-41.87-41.87-74.74-90.63-97.71-144.94C12.06,581.04,0,521.32,0,459.77s12.06-121.27,35.86-177.52c22.97-54.31,55.85-103.08,97.71-144.94S224.2,62.57,278.51,39.6C334.76,15.8,394.49,3.74,456.03,3.74c67.36,0,132.24,14.36,192.85,42.68l-41.61,89.04c-47.48-22.19-98.37-33.43-151.24-33.43-197.26,0-357.75,160.49-357.75,357.75s160.49,357.75,357.75,357.75c49.38,0,97.18-9.86,142.07-29.3l39.07,90.18c-57.29,24.82-118.23,37.4-181.13,37.4Z"/><path class="e" d="M673.63,857.96l-50.56-84.28c21.74-13.04,42.17-28.46,60.72-45.83l67.18,71.74c-23.62,22.11-49.64,41.75-77.33,58.37Z"/></g></g></svg>